<svg width="75" height="49" viewBox="0 0 75 49" fill="none" xmlns="http://www.w3.org/2000/svg">
<path d="M28.196 40C29.7729 40 33.5343 38.293 35.8867 36.5726C36.1323 36.3844 36.3391 36.3172 36.5459 36.3172C36.7139 36.3306 36.869 36.3441 37.0112 36.3441C46.3305 36.3306 53 31.0484 53 23.7903C53 16.8414 46.3175 11.25 37.9935 11.25C29.6695 11.25 23 16.8414 23 23.7903C23 28.1183 25.5075 31.9892 29.7471 34.3683C29.9798 34.5161 30.0444 34.7177 29.928 34.9597C29.1784 36.2634 27.9246 37.7151 27.4076 38.4005C26.8259 39.1667 27.162 40 28.196 40ZM38.0065 30.9812C37.3085 30.9812 36.7915 30.4704 36.7915 29.7446V23.1989L36.9207 20.336L35.7187 21.8952L34.2193 23.5215C34.0254 23.75 33.7281 23.8844 33.405 23.8844C32.7587 23.8844 32.2805 23.4005 32.2805 22.7419C32.2805 22.3925 32.3839 22.1371 32.6036 21.8817L37.0371 17.2043C37.3473 16.8817 37.6316 16.7339 38.0065 16.7339C38.3942 16.7339 38.6915 16.8952 38.9888 17.2043L43.4093 21.8817C43.642 22.1371 43.7454 22.3925 43.7454 22.7419C43.7454 23.4005 43.2671 23.8844 42.6209 23.8844C42.2977 23.8844 42.0004 23.75 41.7936 23.5215L40.3201 21.9086L39.1051 20.3226L39.2344 23.1989V29.7446C39.2344 30.4704 38.7174 30.9812 38.0065 30.9812Z" fill="#1A1B22"/>
</svg>
