<svg width="75" height="49" viewBox="0 0 75 49" fill="none" xmlns="http://www.w3.org/2000/svg">
<g clip-path="url(#clip0_11865_3784)">
<path d="M49.4693 26.4687C49.5335 26 49.5656 25.5156 49.5656 25C49.5656 24.5 49.5335 24 49.4532 23.5312L52.7141 21.0625C53.0032 20.8437 53.0835 20.4219 52.9068 20.1094L49.8227 14.9219C49.6299 14.5781 49.2283 14.4687 48.8749 14.5781L45.0358 16.0781C44.2326 15.4844 43.3812 14.9844 42.4335 14.6094L41.8552 10.6406C41.791 10.2656 41.4697 10 41.0842 10H34.9158C34.5303 10 34.2251 10.2656 34.1608 10.6406L33.5826 14.6094C32.6348 14.9844 31.7674 15.5 30.9803 16.0781L27.1411 14.5781C26.7877 14.4531 26.3862 14.5781 26.1934 14.9219L23.1253 20.1094C22.9325 20.4375 22.9968 20.8437 23.3181 21.0625L26.5789 23.5312C26.4986 24 26.4344 24.5156 26.4344 25C26.4344 25.4844 26.4665 26 26.5468 26.4687L23.2859 28.9375C22.9968 29.1562 22.9165 29.5781 23.0932 29.8906L26.1773 35.0781C26.3701 35.4219 26.7717 35.5312 27.1251 35.4219L30.9642 33.9219C31.7674 34.5156 32.6188 35.0156 33.5665 35.3906L34.1448 39.3594C34.2251 39.7344 34.5303 40 34.9158 40H41.0842C41.4697 40 41.791 39.7344 41.8392 39.3594L42.4174 35.3906C43.3652 35.0156 44.2326 34.5156 45.0197 33.9219L48.8589 35.4219C49.2123 35.5469 49.6138 35.4219 49.8066 35.0781L52.8908 29.8906C53.0835 29.5469 53.0032 29.1562 52.698 28.9375L49.4693 26.4687ZM38 30.625C34.8194 30.625 32.2172 28.0938 32.2172 25C32.2172 21.9062 34.8194 19.375 38 19.375C41.1806 19.375 43.7828 21.9062 43.7828 25C43.7828 28.0938 41.1806 30.625 38 30.625Z" fill="#AEAFB4"/>
</g>
<defs>
<clipPath id="clip0_11865_3784">
<rect width="30" height="30" fill="white" transform="translate(23 10)"/>
</clipPath>
</defs>
</svg>
